<?xml version="1.0" encoding="UTF-8" standalone="no"?>
<!-- Created with Inkscape (http://www.inkscape.org/) -->

<svg
   xmlns:dc="http://purl.org/dc/elements/1.1/"
   xmlns:cc="http://creativecommons.org/ns#"
   xmlns:rdf="http://www.w3.org/1999/02/22-rdf-syntax-ns#"
   xmlns:svg="http://www.w3.org/2000/svg"
   xmlns="http://www.w3.org/2000/svg"
   xmlns:sodipodi="http://sodipodi.sourceforge.net/DTD/sodipodi-0.dtd"
   xmlns:inkscape="http://www.inkscape.org/namespaces/inkscape"
   width="200.0822"
   height="200.0822"
   id="svg3543"
   version="1.1"
   inkscape:version="0.48.4 r9939"
   sodipodi:docname="quadrotor.svg">
  <defs
     id="defs3545" />
  <sodipodi:namedview
     id="base"
     pagecolor="#ffffff"
     bordercolor="#666666"
     borderopacity="1.0"
     inkscape:pageopacity="0.0"
     inkscape:pageshadow="2"
     inkscape:zoom="2.8"
     inkscape:cx="218.55567"
     inkscape:cy="103.65737"
     inkscape:document-units="px"
     inkscape:current-layer="layer1"
     showgrid="false"
     fit-margin-top="0"
     fit-margin-left="0"
     fit-margin-right="0"
     fit-margin-bottom="0"
     inkscape:window-width="1600"
     inkscape:window-height="849"
     inkscape:window-x="0"
     inkscape:window-y="25"
     inkscape:window-maximized="1" />
  <metadata
     id="metadata3548">
    <rdf:RDF>
      <cc:Work
         rdf:about="">
        <dc:format>image/svg+xml</dc:format>
        <dc:type
           rdf:resource="http://purl.org/dc/dcmitype/StillImage" />
        <dc:title />
      </cc:Work>
    </rdf:RDF>
  </metadata>
  <g
     inkscape:label="Layer 1"
     inkscape:groupmode="layer"
     id="layer1"
     transform="translate(-158.2896,-548.99271)">
    <g
       id="strut"
       inkscape:label="#strut">
      <path
         inkscape:connector-curvature="0"
         id="path-5-5"
         d="m 259.93935,560.6209 -2.90861,-1.12699 -1.61574,4.94796 0,168.53073 2.65018,5.38794 2.65019,-5.38792 0.007,-168.54534 -0.78334,-3.80638 z"
         style="font-size:medium;font-style:normal;font-variant:normal;font-weight:normal;font-stretch:normal;text-indent:0;text-align:start;text-decoration:none;line-height:normal;letter-spacing:normal;word-spacing:normal;text-transform:none;direction:ltr;block-progression:tb;writing-mode:lr-tb;text-anchor:start;baseline-shift:baseline;color:#000000;fill:#000000;fill-opacity:1;stroke:none;stroke-width:16;marker:none;visibility:visible;display:inline;overflow:visible;enable-background:accumulate;font-family:Sans;-inkscape-font-specification:Sans"
         sodipodi:nodetypes="ccccccccc" />
      <path
         inkscape:connector-curvature="0"
         id="path-5-6"
         d="m 347.10079,650.23149 1.12699,-2.90861 -4.94796,-1.61574 -168.53073,0 -5.38794,2.65018 5.38792,2.65019 168.54534,0.007 3.80638,-0.78334 z"
         style="font-size:medium;font-style:normal;font-variant:normal;font-weight:normal;font-stretch:normal;text-indent:0;text-align:start;text-decoration:none;line-height:normal;letter-spacing:normal;word-spacing:normal;text-transform:none;direction:ltr;block-progression:tb;writing-mode:lr-tb;text-anchor:start;baseline-shift:baseline;color:#000000;fill:#000000;fill-opacity:1;stroke:none;stroke-width:16;marker:none;visibility:visible;display:inline;overflow:visible;enable-background:accumulate;font-family:Sans;-inkscape-font-specification:Sans"
         sodipodi:nodetypes="ccccccccc" />
    </g>
    <g
       transform="matrix(1.4230511,1.423051,-1.423051,1.4230511,347.25912,-777.02539)"
       id="top"
       style="fill:#000000;fill-opacity:1;stroke:none">
      <g
         transform="matrix(-0.18920123,0,0,0.18920123,475.0222,418.58204)"
         id="rotor"
         style="fill:#000000;fill-opacity:1;stroke:none">
        <path
           style="fill:#000000;fill-opacity:1;stroke:none"
           d="m 297.33145,517.12517 c 0,0 -44.29118,14.11887 -104.98813,-85.41408 -22.85104,-17.74837 27.58638,21.95858 104.98813,85.41408 z"
           id="path3759-2-2-3-9"
           inkscape:connector-curvature="0"
           sodipodi:nodetypes="ccc" />
        <path
           style="fill:#000000;fill-opacity:1;stroke:none"
           d="m 91.453428,351.5915 c 0,0 44.291182,-14.11887 104.988132,85.41408 C 219.2926,454.75395 168.85518,415.047 91.453428,351.5915 z"
           id="path3759-1-3-5-3-0"
           inkscape:connector-curvature="0"
           sodipodi:nodetypes="ccc" />
      </g>
      <path
         transform="matrix(-0.13377939,0,0,0.13377939,518.59193,459.1109)"
         d="m 639.99997,312.36218 c 0,20.51344 -16.62942,37.14286 -37.14285,37.14286 -20.51344,0 -37.14286,-16.62942 -37.14286,-37.14286 0,-20.51343 16.62942,-37.14285 37.14286,-37.14285 20.51343,0 37.14285,16.62942 37.14285,37.14285 z"
         sodipodi:ry="37.142857"
         sodipodi:rx="37.142857"
         sodipodi:cy="312.36218"
         sodipodi:cx="602.85712"
         id="motor"
         style="fill:#000000;fill-opacity:1;stroke:none"
         sodipodi:type="arc" />
    </g>
    <g
       transform="matrix(1.423051,-1.4230511,1.4230511,1.423051,-1167.7285,560.10542)"
       id="left"
       style="fill:#000000;fill-opacity:1;stroke:none">
      <g
         transform="matrix(-0.18920123,0,0,0.18920123,475.0222,418.58204)"
         id="rotor-8"
         style="fill:#000000;fill-opacity:1;stroke:none">
        <path
           style="fill:#000000;fill-opacity:1;stroke:none"
           d="m 297.33145,517.12517 c 0,0 -44.29118,14.11887 -104.98813,-85.41408 -22.85104,-17.74837 27.58638,21.95858 104.98813,85.41408 z"
           id="path3759-2-2-3-9-4"
           inkscape:connector-curvature="0"
           sodipodi:nodetypes="ccc" />
        <path
           style="fill:#000000;fill-opacity:1;stroke:none"
           d="m 91.453428,351.5915 c 0,0 44.291182,-14.11887 104.988132,85.41408 C 219.2926,454.75395 168.85518,415.047 91.453428,351.5915 z"
           id="path3759-1-3-5-3-0-5"
           inkscape:connector-curvature="0"
           sodipodi:nodetypes="ccc" />
      </g>
      <path
         transform="matrix(-0.13377939,0,0,0.13377939,518.59193,459.1109)"
         d="m 639.99997,312.36218 c 0,20.51344 -16.62942,37.14286 -37.14285,37.14286 -20.51344,0 -37.14286,-16.62942 -37.14286,-37.14286 0,-20.51343 16.62942,-37.14285 37.14286,-37.14285 20.51343,0 37.14285,16.62942 37.14285,37.14285 z"
         sodipodi:ry="37.142857"
         sodipodi:rx="37.142857"
         sodipodi:cy="312.36218"
         sodipodi:cx="602.85712"
         id="motor-3"
         style="fill:#000000;fill-opacity:1;stroke:none"
         sodipodi:type="arc" />
    </g>
    <g
       transform="matrix(-1.423051,1.4230511,-1.4230511,-1.423051,1684.3899,738.04437)"
       id="right"
       style="fill:#000000;fill-opacity:1;stroke:none">
      <g
         transform="matrix(-0.18920123,0,0,0.18920123,475.0222,418.58204)"
         id="rotor-3"
         style="fill:#000000;fill-opacity:1;stroke:none">
        <path
           style="fill:#000000;fill-opacity:1;stroke:none"
           d="m 297.33145,517.12517 c 0,0 -44.29118,14.11887 -104.98813,-85.41408 -22.85104,-17.74837 27.58638,21.95858 104.98813,85.41408 z"
           id="path3759-2-2-3-9-47"
           inkscape:connector-curvature="0"
           sodipodi:nodetypes="ccc" />
        <path
           style="fill:#000000;fill-opacity:1;stroke:none"
           d="m 91.453428,351.5915 c 0,0 44.291182,-14.11887 104.988132,85.41408 C 219.2926,454.75395 168.85518,415.047 91.453428,351.5915 z"
           id="path3759-1-3-5-3-0-6"
           inkscape:connector-curvature="0"
           sodipodi:nodetypes="ccc" />
      </g>
      <path
         transform="matrix(-0.13377939,0,0,0.13377939,518.59193,459.1109)"
         d="m 639.99997,312.36218 c 0,20.51344 -16.62942,37.14286 -37.14285,37.14286 -20.51344,0 -37.14286,-16.62942 -37.14286,-37.14286 0,-20.51343 16.62942,-37.14285 37.14286,-37.14285 20.51343,0 37.14285,16.62942 37.14285,37.14285 z"
         sodipodi:ry="37.142857"
         sodipodi:rx="37.142857"
         sodipodi:cy="312.36218"
         sodipodi:cx="602.85712"
         id="motor-5"
         style="fill:#000000;fill-opacity:1;stroke:none"
         sodipodi:type="arc" />
    </g>
    <g
       transform="matrix(-1.4230511,-1.423051,1.423051,-1.4230511,169.32017,2075.093)"
       id="bottom"
       style="fill:#000000;fill-opacity:1;stroke:none">
      <g
         transform="matrix(-0.18920123,0,0,0.18920123,475.0222,418.58204)"
         id="rotor-5"
         style="fill:#000000;fill-opacity:1;stroke:none">
        <path
           style="fill:#000000;fill-opacity:1;stroke:none"
           d="m 297.33145,517.12517 c 0,0 -44.29118,14.11887 -104.98813,-85.41408 -22.85104,-17.74837 27.58638,21.95858 104.98813,85.41408 z"
           id="path3759-2-2-3-9-9"
           inkscape:connector-curvature="0"
           sodipodi:nodetypes="ccc" />
        <path
           style="fill:#000000;fill-opacity:1;stroke:none"
           d="m 91.453428,351.5915 c 0,0 44.291182,-14.11887 104.988132,85.41408 C 219.2926,454.75395 168.85518,415.047 91.453428,351.5915 z"
           id="path3759-1-3-5-3-0-4"
           inkscape:connector-curvature="0"
           sodipodi:nodetypes="ccc" />
      </g>
      <path
         transform="matrix(-0.13377939,0,0,0.13377939,518.59193,459.1109)"
         d="m 639.99997,312.36218 c 0,20.51344 -16.62942,37.14286 -37.14285,37.14286 -20.51344,0 -37.14286,-16.62942 -37.14286,-37.14286 0,-20.51343 16.62942,-37.14285 37.14286,-37.14285 20.51343,0 37.14285,16.62942 37.14285,37.14285 z"
         sodipodi:ry="37.142857"
         sodipodi:rx="37.142857"
         sodipodi:cy="312.36218"
         sodipodi:cx="602.85712"
         id="motor-0"
         style="fill:#000000;fill-opacity:1;stroke:none"
         sodipodi:type="arc" />
    </g>
    <path
       sodipodi:type="arc"
       style="fill:#000000;stroke:none"
       id="payload"
       sodipodi:cx="-0.71428573"
       sodipodi:cy="235.33669"
       sodipodi:rx="30.714285"
       sodipodi:ry="30.714285"
       d="m 29.999999,235.33669 c 0,16.96303 -13.751254,30.71428 -30.71428473,30.71428 -16.96303127,0 -30.71428527,-13.75125 -30.71428527,-30.71428 0,-16.96304 13.751254,-30.71429 30.71428527,-30.71429 16.96303073,0 30.71428473,13.75125 30.71428473,30.71429 z"
       transform="translate(258.28964,414.45249)" />
  </g>
</svg>
